<?xml version="1.0" encoding="utf-8"?>
<!-- Generator: Adobe Illustrator 24.0.2, SVG Export Plug-In . SVG Version: 6.00 Build 0)  -->
<svg version="1.1" id="Layer_1" xmlns="http://www.w3.org/2000/svg" xmlns:xlink="http://www.w3.org/1999/xlink" x="0px" y="0px"
	 viewBox="0 0 119 100.2" style="enable-background:new 0 0 119 100.2;" xml:space="preserve">
<style type="text/css">
	.st0{fill:#00303C;}
</style>
<title>Asset 1</title>
<g>
	<path class="st0" d="M-89.2,19.3c0,18.8-29.9,24.8-8.2,52.2c-29.6-7.7-32.7-26.9-17.2-40.7c13.1-11.7,17.4-22.3,17.4-27.9
		c0-1.1-0.1-2.1-0.4-3.1C-94,3.3-89.2,8.6-89.2,19.3z"/>
	<path class="st0" d="M-96.9,66.8c-1.9-1.5-3.3-3.7-4-6c-1.1-3.2-0.7-6.7,1-9.6c2.7-5.2,6.2-9.8,9.3-14.7c2.3-3.4,3.9-7.2,4.8-11.3
		c0.4-2.4,0.4-4.8-0.2-7.1c0.8,1.6,1.5,3.1,2.2,4.7c1,2.2,1.5,4.7,1.6,7.2c0,2.6-0.6,5.3-1.7,7.7c-1.7,4.3-4.3,8-7,11.7
		c-2.2,2.7-4,5.7-5.4,8.9c-0.8,1.7-1.2,3.5-1.3,5.4c0.1,0.9,0.2,1.7,0.5,2.5C-97.1,66.5-97,66.7-96.9,66.8z"/>
	<path class="st0" d="M-95,69.9c0.1-1.3,0.1-2.6,0.2-3.9c0.5-4.8,2.9-8.7,5.7-12.3c2.5-3.2,4.7-6.7,6.5-10.4
		c1.4-2.5,2.1-5.3,2.3-8.2c-0.1-1-0.1-1.9-0.3-2.9c1.6,2.3,2.7,4.9,3.4,7.6c0.7,3.8-0.3,7.3-1.8,10.7c-2,4.5-5.3,8.1-8.8,11.6
		c-1.8,1.8-3.5,3.7-5.1,5.6c-0.4,0.4-0.5,1-0.9,1.4c-0.3,0.3-0.5,0.6-0.9,1L-95,69.9z"/>
</g>
<g>
	<path class="st0" d="M71.5,35.4l-25.3,5.7c-1.6,0.3-2.6,2-2.3,3.6c0.3,1.6,2,2.6,3.6,2.3l16.7-3.8l-5.8,6.9h-6.2
		c-2.3,0-4,2.1-3.4,4.4l2.5,10.3c0.4,1.6,1.8,2.7,3.4,2.7h8.8c1.6,0,3-1.1,3.4-2.7l2.5-10.3c0.6-2.1-1.1-4.3-3.3-4.3l8.3-9.7
		c0.2-0.2,0.2-0.4,0.4-0.7c0.3-0.6,0.4-1.3,0.2-2C74.7,36.1,73.1,35.1,71.5,35.4z"/>
	<path class="st0" d="M71.5,26.2l-25.3,5.7c-1.6,0.3-2.6,2-2.3,3.6c0.3,1.6,2,2.6,3.6,2.3l25.3-5.7c1.6-0.3,2.6-2,2.3-3.6
		C74.7,26.8,73.1,25.8,71.5,26.2z"/>
	<path class="st0" d="M43.9,25.7c0.3,1.6,2,2.6,3.6,2.3l25.3-5.7c1.6-0.3,2.6-2,2.3-3.6s-2-2.6-3.6-2.3l-25.3,5.7
		C44.6,22.5,43.5,24,43.9,25.7z"/>
	<path class="st0" d="M47.1,18.7l17.8-4c1.4-0.3,2.3-1.7,2-3.1l-0.2-0.8c-0.4-1.3-1.8-2.2-3.2-1.9l-17.8,4c-1.4,0.3-2.3,1.7-2,3.1
		l0.2,0.8C44.3,18.2,45.7,19,47.1,18.7z"/>
</g>
<g>
	<path class="st0" d="M2.1,81.1h7.3V83H4.2V86h4.5v1.9H4.2v3.6h5.4v1.9H2.1V81.1z"/>
	<path class="st0" d="M11.5,81.1h2.2v10.4h5.6v1.9h-7.8V81.1z"/>
	<path class="st0" d="M20.9,81.1h7.3V83H23V86h4.5v1.9H23v3.6h5.4v1.9h-7.5V81.1z"/>
	<path class="st0" d="M33.4,83h-4v-1.9h10.3V83h-4.1v10.4h-2.2V83z"/>
	<path class="st0" d="M41.2,81.1h3.6c1.4,0,2.6,0.1,3.6,0.7c1,0.6,1.6,1.5,1.6,2.9c0,1.6-1,3-2.7,3.4l3.7,5.3h-2.5l-3.4-5h-1.6v5
		h-2.2V81.1z M45.1,86.6c1,0,1.6-0.1,2.1-0.5c0.4-0.3,0.6-0.7,0.6-1.3c0-0.7-0.3-1.2-0.9-1.5S45.7,83,44.7,83h-1.3v3.6H45.1z"/>
	<path class="st0" d="M52.3,81.1h2.2v12.3h-2.2V81.1z"/>
	<path class="st0" d="M66.5,92.7c-1,0.6-2.3,0.9-3.6,0.9c-3.9,0-6.6-2.7-6.6-6.3c0-3.5,2.7-6.4,6.6-6.4c1.3,0,2.5,0.3,3.4,0.8v2.2
		c-0.9-0.6-2.2-1.1-3.4-1.1c-2.6,0-4.4,1.9-4.4,4.4c0,2.5,1.8,4.4,4.5,4.4c1.3,0,2.5-0.4,3.5-1.2V92.7z"/>
	<path class="st0" d="M68.4,81.1h2.2v12.3h-2.2V81.1z"/>
	<path class="st0" d="M73,81.1h3.4c1.9,0,3.5,0.3,4.8,1.1c1.6,1.1,2.5,2.9,2.5,5c0,2-0.8,3.7-2.2,4.8c-1.3,1-3,1.4-5.3,1.4H73V81.1z
		 M76.4,91.5c1.6,0,2.8-0.2,3.7-0.9c1-0.7,1.6-1.9,1.6-3.4c0-1.5-0.7-2.7-1.7-3.4c-1-0.7-2.2-0.8-3.6-0.8h-1.2v8.5H76.4z"/>
	<path class="st0" d="M96.1,93.4h-2.3l-1.2-3h-5.3l-1.2,3h-2.2l5-12.3h2.1L96.1,93.4z M88,88.6h3.9l-0.7-1.9
		c-0.4-1.1-0.8-2.2-1.2-3.3h0c-0.4,1.1-0.8,2.2-1.2,3.3L88,88.6z"/>
	<path class="st0" d="M97.4,81.1h3.4c1.9,0,3.5,0.3,4.8,1.1c1.6,1.1,2.5,2.9,2.5,5c0,2-0.8,3.7-2.2,4.8c-1.3,1-3,1.4-5.3,1.4h-3.1
		V81.1z M100.8,91.5c1.6,0,2.8-0.2,3.7-0.9c1-0.7,1.6-1.9,1.6-3.4c0-1.5-0.7-2.7-1.7-3.4c-1-0.7-2.2-0.8-3.6-0.8h-1.2v8.5H100.8z"/>
	<path class="st0" d="M110,81.1h7.3V83h-5.2V86h4.5v1.9h-4.5v3.6h5.4v1.9H110V81.1z"/>
</g>
</svg>
