<?xml version="1.0" encoding="utf-8"?>
<!-- Generator: Adobe Illustrator 24.0.2, SVG Export Plug-In . SVG Version: 6.00 Build 0)  -->
<svg version="1.1" id="Layer_1" xmlns="http://www.w3.org/2000/svg" xmlns:xlink="http://www.w3.org/1999/xlink" x="0px" y="0px"
	 viewBox="0 0 119 100.2" style="enable-background:new 0 0 119 100.2;" xml:space="preserve">
<style type="text/css">
	.st0{fill:#00303C;}
</style>
<title>Asset 3</title>
<g>
	<path class="st0" d="M68.6,20.7c0,17.4-27.6,22.9-7.6,48.2C33.6,61.8,30.8,44,45.1,31.3C57.2,20.6,61.2,10.8,61.2,5.6
		c0-1-0.1-1.9-0.4-2.9C64.1,6,68.6,10.8,68.6,20.7z"/>
	<path class="st0" d="M61.4,64.6c-1.8-1.4-3-3.4-3.7-5.5c-1-3-0.6-6.2,0.9-8.9c2.5-4.8,5.7-9.1,8.6-13.6c2.1-3.1,3.6-6.7,4.4-10.4
		c0.4-2.2,0.4-4.4-0.2-6.6c0.7,1.5,1.4,2.9,2,4.3c0.9,2,1.4,4.3,1.5,6.7c0,2.4-0.6,4.9-1.6,7.1c-1.6,4-4,7.4-6.5,10.8
		c-2,2.5-3.7,5.3-5,8.2c-0.7,1.6-1.1,3.2-1.2,5c0.1,0.8,0.2,1.6,0.5,2.3C61.3,64.4,61.3,64.5,61.4,64.6z"/>
	<path class="st0" d="M63.2,67.5c0.1-1.2,0.1-2.4,0.2-3.6c0.5-4.4,2.7-8,5.3-11.4c2.3-3,4.3-6.2,6-9.6c1.3-2.3,1.9-4.9,2.1-7.6
		c-0.1-0.9-0.1-1.8-0.3-2.7c1.5,2.1,2.5,4.5,3.1,7c0.6,3.5-0.3,6.7-1.7,9.9c-1.8,4.2-4.9,7.5-8.1,10.7c-1.7,1.7-3.2,3.4-4.7,5.2
		c-0.4,0.4-0.5,0.9-0.8,1.3c-0.3,0.3-0.5,0.6-0.8,0.9L63.2,67.5z"/>
</g>
<g>
	<path class="st0" d="M11.4,92c-1.1,0.7-2.7,1.1-4.2,1.1c-3.8,0-6.5-2.7-6.5-6.3c0-3.6,2.7-6.4,6.6-6.4c1.6,0,2.9,0.4,3.8,1v2.3
		c-1-0.8-2.4-1.3-3.8-1.3c-2.7,0-4.5,2-4.5,4.4s1.7,4.4,4.5,4.4c0.7,0,1.5-0.2,2-0.4v-2.4H6.8v-1.8h4.6V92z"/>
	<path class="st0" d="M24.8,93h-2.3l-1.2-3H16l-1.2,3h-2.2l5-12.3h2.1L24.8,93z M16.7,88.2h3.9l-0.7-1.9c-0.4-1.1-0.8-2.2-1.2-3.3
		l0,0c-0.4,1.1-0.8,2.2-1.2,3.3L16.7,88.2z M19,79.5h-1.5l1.4-2.8h2L19,79.5z"/>
	<path class="st0" d="M25.8,90c1.2,0.9,2.8,1.3,3.8,1.3c1.2,0,2.1-0.5,2.1-1.7c0-1.4-1.3-1.5-2.9-2c-1.7-0.5-3.3-1.3-3.3-3.5
		s1.7-3.6,4.1-3.6c1.2,0,2.6,0.3,3.7,0.9v2.2c-1.2-0.8-2.7-1.2-3.7-1.2c-1.2,0-2,0.5-2,1.5c0,1.3,1.3,1.5,2.8,1.9
		c1.8,0.6,3.5,1.4,3.5,3.6c0,2.3-1.7,3.7-4.3,3.7c-1.2,0-2.7-0.3-3.8-0.9V90z"/>
	<path class="st0" d="M39.8,93V80.7h2l4.5,5.9c0.8,1,1.5,2,2.2,3l0,0c0-1.2,0-2.4,0-3.7v-5.2h2.1V93h-2l-4.5-6c-0.8-1-1.5-2-2.2-3
		l0,0c0,1.2,0,2.4,0,3.7V93H39.8z"/>
	<path class="st0" d="M64.1,93h-2.3l-1.2-3h-5.3l-1.2,3h-2.2l5-12.3H59L64.1,93z M56,88.2h3.9l-0.7-1.9c-0.4-1.1-0.8-2.2-1.2-3.3
		l0,0c-0.4,1.1-0.8,2.2-1.2,3.3L56,88.2z"/>
	<path class="st0" d="M66.9,82.6h-4v-1.9h10.3v1.9h-4.1V93h-2.2C66.9,93,66.9,82.6,66.9,82.6z"/>
	<path class="st0" d="M84.9,87c0,1.8-0.2,3.2-0.9,4.2c-0.9,1.3-2.4,2-4.3,2c-2,0-3.5-0.7-4.3-2c-0.7-1-0.9-2.4-0.9-4v-6.5h2.2V87
		c0,1.4,0.1,2.3,0.5,2.9c0.4,0.7,1.2,1.3,2.6,1.3c1.3,0,2.1-0.5,2.5-1.2s0.5-1.6,0.5-2.9v-6.4h2.1L84.9,87L84.9,87z"/>
	<path class="st0" d="M87.3,80.7h3.6c1.4,0,2.6,0.1,3.6,0.7s1.6,1.5,1.6,2.9c0,1.6-1,3-2.7,3.4l3.7,5.3h-2.5l-3.4-5h-1.6v5h-2.2
		L87.3,80.7L87.3,80.7z M91.2,86.2c1,0,1.6-0.1,2.1-0.5c0.4-0.3,0.6-0.7,0.6-1.3c0-0.7-0.3-1.2-0.9-1.5s-1.2-0.3-2.3-0.3h-1.3v3.6
		C89.4,86.2,91.2,86.2,91.2,86.2z"/>
	<path class="st0" d="M109.6,93h-2.3l-1.2-3h-5.3l-1.2,3h-2.2l5-12.3h2.1L109.6,93z M101.5,88.2h3.9l-0.7-1.9
		c-0.4-1.1-0.8-2.2-1.2-3.3l0,0c-0.4,1.1-0.8,2.2-1.2,3.3L101.5,88.2z"/>
	<path class="st0" d="M110.9,80.7h2.2v10.4h5.6V93h-7.8C110.9,93,110.9,80.7,110.9,80.7z"/>
</g>
</svg>
