<svg xmlns="http://www.w3.org/2000/svg" viewBox="0 0 49 49">
  <defs>
    <style>
      .cls-1 {
        fill: none;
        stroke: #3a5b66;
        stroke-miterlimit: 10;
      }

      .cls-2 {
        fill: #3a5b66;
      }
    </style>
  </defs>
  <title>Asset 3</title>
  <g id="Layer_2" data-name="Layer 2">
    <g id="Layer_1-2" data-name="Layer 1">
      <g>
        <circle class="cls-1" cx="24.5" cy="24.5" r="24"/>
        <path class="cls-2" d="M45.4,26.8c-.2-.2-.4-.5-.6-.6-3.4-1.3-6.9-2.6-10.3-4a2.79,2.79,0,0,0-1.8-.1c-1.6.5-3.2.9-4.8,1.4a3,3,0,0,0-3.4-2l-.1-.2c-1.7-3.8-3.5-7.6-5.3-11.4a37.78,37.78,0,0,0-1.7-3.5,1,1,0,0,0-.5-.4,1.45,1.45,0,0,0-.2.7v.2c.6,3.6,1.1,7.3,1.8,10.9a3.15,3.15,0,0,0,.8,1.5c1,1.2,2.1,2.3,3.2,3.5a3,3,0,0,0,.3,4C20.9,29.5,19,32.3,17,35c-1.3,1.8-2.6,3.7-3.9,5.5a1.27,1.27,0,0,0-.1.6l.7-.1.1-.1c3-2.4,5.9-4.8,8.8-7.2a2,2,0,0,0,.6-1.1c.4-1.5.8-3.1,1.2-4.6,0-.1.1-.3.1-.4h.3a3.14,3.14,0,0,0,2.9-2,1.1,1.1,0,0,1,.8,0c5.3.5,10.6,1,15.9,1.4C44.8,26.9,45.1,26.9,45.4,26.8Z"/>
        <path class="cls-2" d="M27.9,27.3a4.45,4.45,0,0,1-2.1,1.2v1.2c-.1.8-.1,10.1-.2,18.9a11.53,11.53,0,0,0,2.6-.3c-.1-9.4-.1-19.7-.2-20.7A.77.77,0,0,1,27.9,27.3Z"/>
      </g>
    </g>
  </g>
</svg>
